<mxfile host="app.diagrams.net" modified="2023-03-22T12:50:01.238Z" agent="5.0 (Windows NT 10.0; Win64; x64) AppleWebKit/537.36 (KHTML, like Gecko) Chrome/111.0.0.0 Safari/537.36" etag="Edi0a95kQ7rX19eSbfwN" version="21.0.6" type="github">
  <diagram name="第 1 页" id="SbjNXqrd9X_LhTj3LuAt">
    <mxGraphModel dx="1195" dy="630" grid="1" gridSize="10" guides="1" tooltips="1" connect="1" arrows="1" fold="1" page="1" pageScale="1" pageWidth="827" pageHeight="1169" math="0" shadow="0">
      <root>
        <mxCell id="0" />
        <mxCell id="1" parent="0" />
        <mxCell id="IT_rv230XRkGy5fumVXU-1" value="" style="rounded=0;whiteSpace=wrap;html=1;" vertex="1" parent="1">
          <mxGeometry x="380" y="100" width="280" height="390" as="geometry" />
        </mxCell>
        <mxCell id="IT_rv230XRkGy5fumVXU-2" value="" style="rounded=0;whiteSpace=wrap;html=1;" vertex="1" parent="1">
          <mxGeometry x="414" y="110" width="216" height="110" as="geometry" />
        </mxCell>
        <mxCell id="IT_rv230XRkGy5fumVXU-3" value="" style="rounded=0;whiteSpace=wrap;html=1;" vertex="1" parent="1">
          <mxGeometry x="414" y="230" width="216" height="160" as="geometry" />
        </mxCell>
        <mxCell id="IT_rv230XRkGy5fumVXU-4" value="" style="rounded=0;whiteSpace=wrap;html=1;" vertex="1" parent="1">
          <mxGeometry x="414" y="400" width="216" height="30" as="geometry" />
        </mxCell>
        <mxCell id="IT_rv230XRkGy5fumVXU-12" value="" style="rounded=0;whiteSpace=wrap;html=1;" vertex="1" parent="1">
          <mxGeometry x="414" y="450" width="26" height="20" as="geometry" />
        </mxCell>
        <mxCell id="IT_rv230XRkGy5fumVXU-13" value="" style="rounded=0;whiteSpace=wrap;html=1;" vertex="1" parent="1">
          <mxGeometry x="450" y="450" width="26" height="20" as="geometry" />
        </mxCell>
        <mxCell id="IT_rv230XRkGy5fumVXU-14" value="" style="rounded=0;whiteSpace=wrap;html=1;" vertex="1" parent="1">
          <mxGeometry x="490" y="450" width="26" height="20" as="geometry" />
        </mxCell>
        <mxCell id="IT_rv230XRkGy5fumVXU-15" value="" style="rounded=0;whiteSpace=wrap;html=1;" vertex="1" parent="1">
          <mxGeometry x="530" y="450" width="26" height="20" as="geometry" />
        </mxCell>
        <mxCell id="IT_rv230XRkGy5fumVXU-16" value="" style="rounded=0;whiteSpace=wrap;html=1;" vertex="1" parent="1">
          <mxGeometry x="570" y="450" width="26" height="20" as="geometry" />
        </mxCell>
        <mxCell id="IT_rv230XRkGy5fumVXU-17" value="" style="rounded=0;whiteSpace=wrap;html=1;" vertex="1" parent="1">
          <mxGeometry x="604" y="450" width="26" height="20" as="geometry" />
        </mxCell>
      </root>
    </mxGraphModel>
  </diagram>
</mxfile>
